%TF.GenerationSoftware,KiCad,Pcbnew,9.0.0*%
%TF.CreationDate,2025-04-12T15:03:45-07:00*%
%TF.ProjectId,SW,53572e6b-6963-4616-945f-706362585858,1*%
%TF.SameCoordinates,Original*%
%TF.FileFunction,Copper,L1,Top*%
%TF.FilePolarity,Positive*%
%FSLAX46Y46*%
G04 Gerber Fmt 4.6, Leading zero omitted, Abs format (unit mm)*
G04 Created by KiCad (PCBNEW 9.0.0) date 2025-04-12 15:03:45*
%MOMM*%
%LPD*%
G01*
G04 APERTURE LIST*
G04 Aperture macros list*
%AMRoundRect*
0 Rectangle with rounded corners*
0 $1 Rounding radius*
0 $2 $3 $4 $5 $6 $7 $8 $9 X,Y pos of 4 corners*
0 Add a 4 corners polygon primitive as box body*
4,1,4,$2,$3,$4,$5,$6,$7,$8,$9,$2,$3,0*
0 Add four circle primitives for the rounded corners*
1,1,$1+$1,$2,$3*
1,1,$1+$1,$4,$5*
1,1,$1+$1,$6,$7*
1,1,$1+$1,$8,$9*
0 Add four rect primitives between the rounded corners*
20,1,$1+$1,$2,$3,$4,$5,0*
20,1,$1+$1,$4,$5,$6,$7,0*
20,1,$1+$1,$6,$7,$8,$9,0*
20,1,$1+$1,$8,$9,$2,$3,0*%
G04 Aperture macros list end*
%TA.AperFunction,ComponentPad*%
%ADD10RoundRect,0.250000X0.550000X-0.550000X0.550000X0.550000X-0.550000X0.550000X-0.550000X-0.550000X0*%
%TD*%
%TA.AperFunction,ComponentPad*%
%ADD11C,1.600000*%
%TD*%
%TA.AperFunction,SMDPad,CuDef*%
%ADD12RoundRect,0.225000X-0.250000X0.225000X-0.250000X-0.225000X0.250000X-0.225000X0.250000X0.225000X0*%
%TD*%
%TA.AperFunction,SMDPad,CuDef*%
%ADD13RoundRect,0.200000X-0.275000X0.200000X-0.275000X-0.200000X0.275000X-0.200000X0.275000X0.200000X0*%
%TD*%
%TA.AperFunction,ComponentPad*%
%ADD14C,1.700000*%
%TD*%
%TA.AperFunction,ComponentPad*%
%ADD15O,1.700000X1.700000*%
%TD*%
%TA.AperFunction,ComponentPad*%
%ADD16R,1.700000X1.700000*%
%TD*%
%TA.AperFunction,ViaPad*%
%ADD17C,0.600000*%
%TD*%
%TA.AperFunction,Conductor*%
%ADD18C,0.400000*%
%TD*%
%TA.AperFunction,Conductor*%
%ADD19C,0.200000*%
%TD*%
G04 APERTURE END LIST*
D10*
%TO.P,SW1,1,A*%
%TO.N,GND*%
X130441500Y-88730500D03*
D11*
%TO.P,SW1,2,B*%
%TO.N,Net-(SW1-B)*%
X130441500Y-81110500D03*
%TD*%
D12*
%TO.P,C1,1*%
%TO.N,/W*%
X126746000Y-88125000D03*
%TO.P,C1,2*%
%TO.N,GND*%
X126746000Y-89675000D03*
%TD*%
D13*
%TO.P,R1,1*%
%TO.N,VDC*%
X126746000Y-81090000D03*
%TO.P,R1,2*%
%TO.N,Net-(SW1-B)*%
X126746000Y-82740000D03*
%TD*%
%TO.P,R2,1*%
%TO.N,Net-(SW1-B)*%
X126746000Y-84138000D03*
%TO.P,R2,2*%
%TO.N,/W*%
X126746000Y-85788000D03*
%TD*%
D14*
%TO.P,J2,1,Pin_1*%
%TO.N,/W*%
X127000000Y-93980000D03*
D15*
%TO.P,J2,2,Pin_2*%
%TO.N,unconnected-(J2-Pin_2-Pad2)*%
X129540000Y-93980000D03*
%TO.P,J2,3,Pin_3*%
%TO.N,GND*%
X132080000Y-93980000D03*
%TD*%
D16*
%TO.P,J1,1,Pin_1*%
%TO.N,VDC*%
X127000000Y-76200000D03*
D15*
%TO.P,J1,2,Pin_2*%
%TO.N,unconnected-(J1-Pin_2-Pad2)*%
X129540000Y-76200000D03*
%TO.P,J1,3,Pin_3*%
%TO.N,unconnected-(J1-Pin_3-Pad3)*%
X132080000Y-76200000D03*
%TD*%
D17*
%TO.N,/W*%
X126746000Y-86868000D03*
%TD*%
D18*
%TO.N,GND*%
X129497000Y-89675000D02*
X130441500Y-88730500D01*
X126746000Y-89675000D02*
X129497000Y-89675000D01*
X132080000Y-93980000D02*
X132080000Y-90369000D01*
X132080000Y-90369000D02*
X130441500Y-88730500D01*
%TO.N,VDC*%
X126746000Y-81090000D02*
X126746000Y-77851000D01*
X127000000Y-77597000D02*
X127000000Y-76200000D01*
X126746000Y-77851000D02*
X127000000Y-77597000D01*
D19*
%TO.N,Net-(SW1-B)*%
X126746000Y-84138000D02*
X126746000Y-83439000D01*
X130441500Y-82791500D02*
X129794000Y-83439000D01*
X130441500Y-81110500D02*
X130441500Y-82791500D01*
X129794000Y-83439000D02*
X126746000Y-83439000D01*
X126746000Y-83439000D02*
X126746000Y-82740000D01*
%TO.N,/W*%
X126746000Y-85788000D02*
X126746000Y-86868000D01*
X126746000Y-86868000D02*
X126746000Y-88125000D01*
%TD*%
M02*
