%TF.GenerationSoftware,KiCad,Pcbnew,9.0.0*%
%TF.CreationDate,2025-04-12T15:03:45-07:00*%
%TF.ProjectId,SW,53572e6b-6963-4616-945f-706362585858,1*%
%TF.SameCoordinates,Original*%
%TF.FileFunction,Legend,Top*%
%TF.FilePolarity,Positive*%
%FSLAX46Y46*%
G04 Gerber Fmt 4.6, Leading zero omitted, Abs format (unit mm)*
G04 Created by KiCad (PCBNEW 9.0.0) date 2025-04-12 15:03:45*
%MOMM*%
%LPD*%
G01*
G04 APERTURE LIST*
%ADD10C,0.162560*%
%ADD11C,0.243840*%
%ADD12C,0.120000*%
G04 APERTURE END LIST*
D10*
X131460724Y-92081979D02*
X131383314Y-92043274D01*
X131383314Y-92043274D02*
X131267200Y-92043274D01*
X131267200Y-92043274D02*
X131151086Y-92081979D01*
X131151086Y-92081979D02*
X131073676Y-92159389D01*
X131073676Y-92159389D02*
X131034971Y-92236798D01*
X131034971Y-92236798D02*
X130996267Y-92391617D01*
X130996267Y-92391617D02*
X130996267Y-92507731D01*
X130996267Y-92507731D02*
X131034971Y-92662550D01*
X131034971Y-92662550D02*
X131073676Y-92739960D01*
X131073676Y-92739960D02*
X131151086Y-92817370D01*
X131151086Y-92817370D02*
X131267200Y-92856074D01*
X131267200Y-92856074D02*
X131344609Y-92856074D01*
X131344609Y-92856074D02*
X131460724Y-92817370D01*
X131460724Y-92817370D02*
X131499428Y-92778665D01*
X131499428Y-92778665D02*
X131499428Y-92507731D01*
X131499428Y-92507731D02*
X131344609Y-92507731D01*
X131847771Y-92856074D02*
X131847771Y-92043274D01*
X131847771Y-92043274D02*
X132312228Y-92856074D01*
X132312228Y-92856074D02*
X132312228Y-92043274D01*
X132699276Y-92856074D02*
X132699276Y-92043274D01*
X132699276Y-92043274D02*
X132892800Y-92043274D01*
X132892800Y-92043274D02*
X133008914Y-92081979D01*
X133008914Y-92081979D02*
X133086324Y-92159389D01*
X133086324Y-92159389D02*
X133125029Y-92236798D01*
X133125029Y-92236798D02*
X133163733Y-92391617D01*
X133163733Y-92391617D02*
X133163733Y-92507731D01*
X133163733Y-92507731D02*
X133125029Y-92662550D01*
X133125029Y-92662550D02*
X133086324Y-92739960D01*
X133086324Y-92739960D02*
X133008914Y-92817370D01*
X133008914Y-92817370D02*
X132892800Y-92856074D01*
X132892800Y-92856074D02*
X132699276Y-92856074D01*
D11*
X130486293Y-79360288D02*
X130660465Y-79418345D01*
X130660465Y-79418345D02*
X130950750Y-79418345D01*
X130950750Y-79418345D02*
X131066865Y-79360288D01*
X131066865Y-79360288D02*
X131124922Y-79302230D01*
X131124922Y-79302230D02*
X131182979Y-79186116D01*
X131182979Y-79186116D02*
X131182979Y-79070002D01*
X131182979Y-79070002D02*
X131124922Y-78953888D01*
X131124922Y-78953888D02*
X131066865Y-78895830D01*
X131066865Y-78895830D02*
X130950750Y-78837773D01*
X130950750Y-78837773D02*
X130718522Y-78779716D01*
X130718522Y-78779716D02*
X130602407Y-78721659D01*
X130602407Y-78721659D02*
X130544350Y-78663602D01*
X130544350Y-78663602D02*
X130486293Y-78547488D01*
X130486293Y-78547488D02*
X130486293Y-78431373D01*
X130486293Y-78431373D02*
X130544350Y-78315259D01*
X130544350Y-78315259D02*
X130602407Y-78257202D01*
X130602407Y-78257202D02*
X130718522Y-78199145D01*
X130718522Y-78199145D02*
X131008807Y-78199145D01*
X131008807Y-78199145D02*
X131182979Y-78257202D01*
X131589379Y-78199145D02*
X131879665Y-79418345D01*
X131879665Y-79418345D02*
X132111893Y-78547488D01*
X132111893Y-78547488D02*
X132344122Y-79418345D01*
X132344122Y-79418345D02*
X132634408Y-78199145D01*
D10*
X126651657Y-92043274D02*
X126845181Y-92856074D01*
X126845181Y-92856074D02*
X127000000Y-92275503D01*
X127000000Y-92275503D02*
X127154819Y-92856074D01*
X127154819Y-92856074D02*
X127348343Y-92043274D01*
X125916266Y-77373250D02*
X126187199Y-78186050D01*
X126187199Y-78186050D02*
X126458133Y-77373250D01*
X126729066Y-78186050D02*
X126729066Y-77373250D01*
X126729066Y-77373250D02*
X126922590Y-77373250D01*
X126922590Y-77373250D02*
X127038704Y-77411955D01*
X127038704Y-77411955D02*
X127116114Y-77489365D01*
X127116114Y-77489365D02*
X127154819Y-77566774D01*
X127154819Y-77566774D02*
X127193523Y-77721593D01*
X127193523Y-77721593D02*
X127193523Y-77837707D01*
X127193523Y-77837707D02*
X127154819Y-77992526D01*
X127154819Y-77992526D02*
X127116114Y-78069936D01*
X127116114Y-78069936D02*
X127038704Y-78147346D01*
X127038704Y-78147346D02*
X126922590Y-78186050D01*
X126922590Y-78186050D02*
X126729066Y-78186050D01*
X128006323Y-78108641D02*
X127967619Y-78147346D01*
X127967619Y-78147346D02*
X127851504Y-78186050D01*
X127851504Y-78186050D02*
X127774095Y-78186050D01*
X127774095Y-78186050D02*
X127657981Y-78147346D01*
X127657981Y-78147346D02*
X127580571Y-78069936D01*
X127580571Y-78069936D02*
X127541866Y-77992526D01*
X127541866Y-77992526D02*
X127503162Y-77837707D01*
X127503162Y-77837707D02*
X127503162Y-77721593D01*
X127503162Y-77721593D02*
X127541866Y-77566774D01*
X127541866Y-77566774D02*
X127580571Y-77489365D01*
X127580571Y-77489365D02*
X127657981Y-77411955D01*
X127657981Y-77411955D02*
X127774095Y-77373250D01*
X127774095Y-77373250D02*
X127851504Y-77373250D01*
X127851504Y-77373250D02*
X127967619Y-77411955D01*
X127967619Y-77411955D02*
X128006323Y-77450660D01*
X129345267Y-91228346D02*
X129461381Y-91267050D01*
X129461381Y-91267050D02*
X129654905Y-91267050D01*
X129654905Y-91267050D02*
X129732314Y-91228346D01*
X129732314Y-91228346D02*
X129771019Y-91189641D01*
X129771019Y-91189641D02*
X129809724Y-91112231D01*
X129809724Y-91112231D02*
X129809724Y-91034822D01*
X129809724Y-91034822D02*
X129771019Y-90957412D01*
X129771019Y-90957412D02*
X129732314Y-90918707D01*
X129732314Y-90918707D02*
X129654905Y-90880003D01*
X129654905Y-90880003D02*
X129500086Y-90841298D01*
X129500086Y-90841298D02*
X129422676Y-90802593D01*
X129422676Y-90802593D02*
X129383971Y-90763888D01*
X129383971Y-90763888D02*
X129345267Y-90686479D01*
X129345267Y-90686479D02*
X129345267Y-90609069D01*
X129345267Y-90609069D02*
X129383971Y-90531660D01*
X129383971Y-90531660D02*
X129422676Y-90492955D01*
X129422676Y-90492955D02*
X129500086Y-90454250D01*
X129500086Y-90454250D02*
X129693609Y-90454250D01*
X129693609Y-90454250D02*
X129809724Y-90492955D01*
X130080657Y-90454250D02*
X130274181Y-91267050D01*
X130274181Y-91267050D02*
X130429000Y-90686479D01*
X130429000Y-90686479D02*
X130583819Y-91267050D01*
X130583819Y-91267050D02*
X130777343Y-90454250D01*
X131512733Y-91267050D02*
X131048276Y-91267050D01*
X131280504Y-91267050D02*
X131280504Y-90454250D01*
X131280504Y-90454250D02*
X131203095Y-90570365D01*
X131203095Y-90570365D02*
X131125685Y-90647774D01*
X131125685Y-90647774D02*
X131048276Y-90686479D01*
X126610533Y-91062641D02*
X126571829Y-91101346D01*
X126571829Y-91101346D02*
X126455714Y-91140050D01*
X126455714Y-91140050D02*
X126378305Y-91140050D01*
X126378305Y-91140050D02*
X126262191Y-91101346D01*
X126262191Y-91101346D02*
X126184781Y-91023936D01*
X126184781Y-91023936D02*
X126146076Y-90946526D01*
X126146076Y-90946526D02*
X126107372Y-90791707D01*
X126107372Y-90791707D02*
X126107372Y-90675593D01*
X126107372Y-90675593D02*
X126146076Y-90520774D01*
X126146076Y-90520774D02*
X126184781Y-90443365D01*
X126184781Y-90443365D02*
X126262191Y-90365955D01*
X126262191Y-90365955D02*
X126378305Y-90327250D01*
X126378305Y-90327250D02*
X126455714Y-90327250D01*
X126455714Y-90327250D02*
X126571829Y-90365955D01*
X126571829Y-90365955D02*
X126610533Y-90404660D01*
X127384629Y-91140050D02*
X126920172Y-91140050D01*
X127152400Y-91140050D02*
X127152400Y-90327250D01*
X127152400Y-90327250D02*
X127074991Y-90443365D01*
X127074991Y-90443365D02*
X126997581Y-90520774D01*
X126997581Y-90520774D02*
X126920172Y-90559479D01*
X126610533Y-80410074D02*
X126339600Y-80023027D01*
X126146076Y-80410074D02*
X126146076Y-79597274D01*
X126146076Y-79597274D02*
X126455714Y-79597274D01*
X126455714Y-79597274D02*
X126533124Y-79635979D01*
X126533124Y-79635979D02*
X126571829Y-79674684D01*
X126571829Y-79674684D02*
X126610533Y-79752093D01*
X126610533Y-79752093D02*
X126610533Y-79868208D01*
X126610533Y-79868208D02*
X126571829Y-79945617D01*
X126571829Y-79945617D02*
X126533124Y-79984322D01*
X126533124Y-79984322D02*
X126455714Y-80023027D01*
X126455714Y-80023027D02*
X126146076Y-80023027D01*
X127384629Y-80410074D02*
X126920172Y-80410074D01*
X127152400Y-80410074D02*
X127152400Y-79597274D01*
X127152400Y-79597274D02*
X127074991Y-79713389D01*
X127074991Y-79713389D02*
X126997581Y-79790798D01*
X126997581Y-79790798D02*
X126920172Y-79829503D01*
X126610533Y-87203050D02*
X126339600Y-86816003D01*
X126146076Y-87203050D02*
X126146076Y-86390250D01*
X126146076Y-86390250D02*
X126455714Y-86390250D01*
X126455714Y-86390250D02*
X126533124Y-86428955D01*
X126533124Y-86428955D02*
X126571829Y-86467660D01*
X126571829Y-86467660D02*
X126610533Y-86545069D01*
X126610533Y-86545069D02*
X126610533Y-86661184D01*
X126610533Y-86661184D02*
X126571829Y-86738593D01*
X126571829Y-86738593D02*
X126533124Y-86777298D01*
X126533124Y-86777298D02*
X126455714Y-86816003D01*
X126455714Y-86816003D02*
X126146076Y-86816003D01*
X126920172Y-86467660D02*
X126958876Y-86428955D01*
X126958876Y-86428955D02*
X127036286Y-86390250D01*
X127036286Y-86390250D02*
X127229810Y-86390250D01*
X127229810Y-86390250D02*
X127307219Y-86428955D01*
X127307219Y-86428955D02*
X127345924Y-86467660D01*
X127345924Y-86467660D02*
X127384629Y-86545069D01*
X127384629Y-86545069D02*
X127384629Y-86622479D01*
X127384629Y-86622479D02*
X127345924Y-86738593D01*
X127345924Y-86738593D02*
X126881467Y-87203050D01*
X126881467Y-87203050D02*
X127384629Y-87203050D01*
D12*
%TO.C,SW1*%
X127781500Y-90110500D02*
X127781500Y-88727500D01*
X127781500Y-90110500D02*
X129164500Y-90110500D01*
X128021500Y-79970500D02*
X132861500Y-79970500D01*
X128021500Y-89870500D02*
X128021500Y-79970500D01*
X128021500Y-89870500D02*
X132861500Y-89870500D01*
X129806500Y-85597167D02*
X131076500Y-85597167D01*
X132861500Y-89870500D02*
X132861500Y-79970500D01*
X129806500Y-86950500D02*
X131076500Y-86950500D01*
X131076500Y-82890500D01*
X129806500Y-82890500D01*
X129806500Y-86950500D01*
X129806500Y-86950500D02*
X131076500Y-86950500D01*
X131076500Y-85597167D01*
X129806500Y-85597167D01*
X129806500Y-86950500D01*
G36*
X129806500Y-86950500D02*
G01*
X131076500Y-86950500D01*
X131076500Y-85597167D01*
X129806500Y-85597167D01*
X129806500Y-86950500D01*
G37*
%TO.C,C1*%
X126236000Y-88759420D02*
X126236000Y-89040580D01*
X127256000Y-88759420D02*
X127256000Y-89040580D01*
%TO.C,R1*%
X126223500Y-81677742D02*
X126223500Y-82152258D01*
X127268500Y-81677742D02*
X127268500Y-82152258D01*
%TO.C,R2*%
X126223500Y-84725742D02*
X126223500Y-85200258D01*
X127268500Y-84725742D02*
X127268500Y-85200258D01*
%TD*%
M02*
