%TF.GenerationSoftware,KiCad,Pcbnew,9.0.0*%
%TF.CreationDate,2025-04-12T16:21:11-07:00*%
%TF.ProjectId,NOT,4e4f542e-6b69-4636-9164-5f7063625858,1*%
%TF.SameCoordinates,Original*%
%TF.FileFunction,Copper,L1,Top*%
%TF.FilePolarity,Positive*%
%FSLAX46Y46*%
G04 Gerber Fmt 4.6, Leading zero omitted, Abs format (unit mm)*
G04 Created by KiCad (PCBNEW 9.0.0) date 2025-04-12 16:21:11*
%MOMM*%
%LPD*%
G01*
G04 APERTURE LIST*
G04 Aperture macros list*
%AMRoundRect*
0 Rectangle with rounded corners*
0 $1 Rounding radius*
0 $2 $3 $4 $5 $6 $7 $8 $9 X,Y pos of 4 corners*
0 Add a 4 corners polygon primitive as box body*
4,1,4,$2,$3,$4,$5,$6,$7,$8,$9,$2,$3,0*
0 Add four circle primitives for the rounded corners*
1,1,$1+$1,$2,$3*
1,1,$1+$1,$4,$5*
1,1,$1+$1,$6,$7*
1,1,$1+$1,$8,$9*
0 Add four rect primitives between the rounded corners*
20,1,$1+$1,$2,$3,$4,$5,0*
20,1,$1+$1,$4,$5,$6,$7,0*
20,1,$1+$1,$6,$7,$8,$9,0*
20,1,$1+$1,$8,$9,$2,$3,0*%
G04 Aperture macros list end*
%TA.AperFunction,SMDPad,CuDef*%
%ADD10RoundRect,0.200000X-0.275000X0.200000X-0.275000X-0.200000X0.275000X-0.200000X0.275000X0.200000X0*%
%TD*%
%TA.AperFunction,SMDPad,CuDef*%
%ADD11RoundRect,0.218750X0.256250X-0.218750X0.256250X0.218750X-0.256250X0.218750X-0.256250X-0.218750X0*%
%TD*%
%TA.AperFunction,SMDPad,CuDef*%
%ADD12RoundRect,0.150000X-0.150000X0.587500X-0.150000X-0.587500X0.150000X-0.587500X0.150000X0.587500X0*%
%TD*%
%TA.AperFunction,ComponentPad*%
%ADD13C,1.700000*%
%TD*%
%TA.AperFunction,ComponentPad*%
%ADD14O,1.700000X1.700000*%
%TD*%
%TA.AperFunction,ComponentPad*%
%ADD15R,1.700000X1.700000*%
%TD*%
%TA.AperFunction,Conductor*%
%ADD16C,0.200000*%
%TD*%
%TA.AperFunction,Conductor*%
%ADD17C,0.400000*%
%TD*%
G04 APERTURE END LIST*
D10*
%TO.P,R2,1*%
%TO.N,/Y*%
X132334000Y-83249000D03*
%TO.P,R2,2*%
%TO.N,Net-(D1-A)*%
X132334000Y-84899000D03*
%TD*%
D11*
%TO.P,D1,1,K*%
%TO.N,GND*%
X132334000Y-88036500D03*
%TO.P,D1,2,A*%
%TO.N,Net-(D1-A)*%
X132334000Y-86461500D03*
%TD*%
D10*
%TO.P,R1,1*%
%TO.N,/Y*%
X129413000Y-87948000D03*
%TO.P,R1,2*%
%TO.N,GND*%
X129413000Y-89598000D03*
%TD*%
D12*
%TO.P,Q1,1,G*%
%TO.N,/A*%
X130363000Y-83136500D03*
%TO.P,Q1,2,S*%
%TO.N,VDC*%
X128463000Y-83136500D03*
%TO.P,Q1,3,D*%
%TO.N,/Y*%
X129413000Y-85011500D03*
%TD*%
D13*
%TO.P,J2,1,Pin_1*%
%TO.N,/Y*%
X127015000Y-93980000D03*
D14*
%TO.P,J2,2,Pin_2*%
%TO.N,unconnected-(J2-Pin_2-Pad2)*%
X129555000Y-93980000D03*
%TO.P,J2,3,Pin_3*%
%TO.N,GND*%
X132095000Y-93980000D03*
%TD*%
D15*
%TO.P,J1,1,Pin_1*%
%TO.N,VDC*%
X127000000Y-76200000D03*
D14*
%TO.P,J1,2,Pin_2*%
%TO.N,/A*%
X129540000Y-76200000D03*
%TO.P,J1,3,Pin_3*%
%TO.N,unconnected-(J1-Pin_3-Pad3)*%
X132080000Y-76200000D03*
%TD*%
D16*
%TO.N,Net-(D1-A)*%
X132334000Y-84899000D02*
X132334000Y-86461500D01*
D17*
%TO.N,GND*%
X132334000Y-89359000D02*
X132095000Y-89598000D01*
X132334000Y-88036500D02*
X132334000Y-89359000D01*
X132095000Y-93980000D02*
X132095000Y-89598000D01*
X132095000Y-89598000D02*
X129413000Y-89598000D01*
D16*
%TO.N,/A*%
X129540000Y-76200000D02*
X129540000Y-81280000D01*
X129540000Y-81280000D02*
X130363000Y-82103000D01*
X130363000Y-82103000D02*
X130363000Y-83136500D01*
D17*
%TO.N,VDC*%
X128463000Y-82108000D02*
X127000000Y-80645000D01*
X128463000Y-83136500D02*
X128463000Y-82108000D01*
X127000000Y-80645000D02*
X127000000Y-76200000D01*
D16*
%TO.N,/Y*%
X131318000Y-85979000D02*
X131318000Y-83566000D01*
X131318000Y-83566000D02*
X131635000Y-83249000D01*
X129413000Y-86614000D02*
X130683000Y-86614000D01*
X131635000Y-83249000D02*
X132334000Y-83249000D01*
X127015000Y-93980000D02*
X127015000Y-87234000D01*
X130683000Y-86614000D02*
X131318000Y-85979000D01*
X129413000Y-87948000D02*
X129413000Y-86614000D01*
X127635000Y-86614000D02*
X129413000Y-86614000D01*
X129413000Y-85011500D02*
X129413000Y-86614000D01*
X127015000Y-87234000D02*
X127635000Y-86614000D01*
%TD*%
M02*
