%TF.GenerationSoftware,KiCad,Pcbnew,9.0.0*%
%TF.CreationDate,2025-04-12T16:21:11-07:00*%
%TF.ProjectId,NOT,4e4f542e-6b69-4636-9164-5f7063625858,1*%
%TF.SameCoordinates,Original*%
%TF.FileFunction,Legend,Top*%
%TF.FilePolarity,Positive*%
%FSLAX46Y46*%
G04 Gerber Fmt 4.6, Leading zero omitted, Abs format (unit mm)*
G04 Created by KiCad (PCBNEW 9.0.0) date 2025-04-12 16:21:11*
%MOMM*%
%LPD*%
G01*
G04 APERTURE LIST*
%ADD10C,0.162560*%
%ADD11C,0.213360*%
%ADD12C,0.120000*%
G04 APERTURE END LIST*
D10*
X126726515Y-83999710D02*
X127113562Y-83999710D01*
X126300762Y-84270643D02*
X126726515Y-83999710D01*
X126726515Y-83999710D02*
X126300762Y-83728776D01*
X126687810Y-83457843D02*
X126687810Y-82838567D01*
X126920038Y-82838567D02*
X126920038Y-83457843D01*
X126881334Y-82490223D02*
X126881334Y-82103176D01*
X127113562Y-82567633D02*
X126300762Y-82296700D01*
X126300762Y-82296700D02*
X127113562Y-82025766D01*
X126075114Y-82563763D02*
X126075114Y-82029637D01*
D11*
X129653632Y-80619427D02*
X129653632Y-79552627D01*
X129653632Y-79552627D02*
X130263232Y-80619427D01*
X130263232Y-80619427D02*
X130263232Y-79552627D01*
X130974432Y-79552627D02*
X131177632Y-79552627D01*
X131177632Y-79552627D02*
X131279232Y-79603427D01*
X131279232Y-79603427D02*
X131380832Y-79705027D01*
X131380832Y-79705027D02*
X131431632Y-79908227D01*
X131431632Y-79908227D02*
X131431632Y-80263827D01*
X131431632Y-80263827D02*
X131380832Y-80467027D01*
X131380832Y-80467027D02*
X131279232Y-80568627D01*
X131279232Y-80568627D02*
X131177632Y-80619427D01*
X131177632Y-80619427D02*
X130974432Y-80619427D01*
X130974432Y-80619427D02*
X130872832Y-80568627D01*
X130872832Y-80568627D02*
X130771232Y-80467027D01*
X130771232Y-80467027D02*
X130720432Y-80263827D01*
X130720432Y-80263827D02*
X130720432Y-79908227D01*
X130720432Y-79908227D02*
X130771232Y-79705027D01*
X130771232Y-79705027D02*
X130872832Y-79603427D01*
X130872832Y-79603427D02*
X130974432Y-79552627D01*
X131736432Y-79552627D02*
X132346032Y-79552627D01*
X132041232Y-80619427D02*
X132041232Y-79552627D01*
D10*
X131460724Y-91954979D02*
X131383314Y-91916274D01*
X131383314Y-91916274D02*
X131267200Y-91916274D01*
X131267200Y-91916274D02*
X131151086Y-91954979D01*
X131151086Y-91954979D02*
X131073676Y-92032389D01*
X131073676Y-92032389D02*
X131034971Y-92109798D01*
X131034971Y-92109798D02*
X130996267Y-92264617D01*
X130996267Y-92264617D02*
X130996267Y-92380731D01*
X130996267Y-92380731D02*
X131034971Y-92535550D01*
X131034971Y-92535550D02*
X131073676Y-92612960D01*
X131073676Y-92612960D02*
X131151086Y-92690370D01*
X131151086Y-92690370D02*
X131267200Y-92729074D01*
X131267200Y-92729074D02*
X131344609Y-92729074D01*
X131344609Y-92729074D02*
X131460724Y-92690370D01*
X131460724Y-92690370D02*
X131499428Y-92651665D01*
X131499428Y-92651665D02*
X131499428Y-92380731D01*
X131499428Y-92380731D02*
X131344609Y-92380731D01*
X131847771Y-92729074D02*
X131847771Y-91916274D01*
X131847771Y-91916274D02*
X132312228Y-92729074D01*
X132312228Y-92729074D02*
X132312228Y-91916274D01*
X132699276Y-92729074D02*
X132699276Y-91916274D01*
X132699276Y-91916274D02*
X132892800Y-91916274D01*
X132892800Y-91916274D02*
X133008914Y-91954979D01*
X133008914Y-91954979D02*
X133086324Y-92032389D01*
X133086324Y-92032389D02*
X133125029Y-92109798D01*
X133125029Y-92109798D02*
X133163733Y-92264617D01*
X133163733Y-92264617D02*
X133163733Y-92380731D01*
X133163733Y-92380731D02*
X133125029Y-92535550D01*
X133125029Y-92535550D02*
X133086324Y-92612960D01*
X133086324Y-92612960D02*
X133008914Y-92690370D01*
X133008914Y-92690370D02*
X132892800Y-92729074D01*
X132892800Y-92729074D02*
X132699276Y-92729074D01*
X126999999Y-92342027D02*
X126999999Y-92729074D01*
X126729066Y-91916274D02*
X126999999Y-92342027D01*
X126999999Y-92342027D02*
X127270933Y-91916274D01*
X129346476Y-78207822D02*
X129733523Y-78207822D01*
X129269066Y-78440050D02*
X129539999Y-77627250D01*
X129539999Y-77627250D02*
X129810933Y-78440050D01*
X125916266Y-77627250D02*
X126187199Y-78440050D01*
X126187199Y-78440050D02*
X126458133Y-77627250D01*
X126729066Y-78440050D02*
X126729066Y-77627250D01*
X126729066Y-77627250D02*
X126922590Y-77627250D01*
X126922590Y-77627250D02*
X127038704Y-77665955D01*
X127038704Y-77665955D02*
X127116114Y-77743365D01*
X127116114Y-77743365D02*
X127154819Y-77820774D01*
X127154819Y-77820774D02*
X127193523Y-77975593D01*
X127193523Y-77975593D02*
X127193523Y-78091707D01*
X127193523Y-78091707D02*
X127154819Y-78246526D01*
X127154819Y-78246526D02*
X127116114Y-78323936D01*
X127116114Y-78323936D02*
X127038704Y-78401346D01*
X127038704Y-78401346D02*
X126922590Y-78440050D01*
X126922590Y-78440050D02*
X126729066Y-78440050D01*
X128006323Y-78362641D02*
X127967619Y-78401346D01*
X127967619Y-78401346D02*
X127851504Y-78440050D01*
X127851504Y-78440050D02*
X127774095Y-78440050D01*
X127774095Y-78440050D02*
X127657981Y-78401346D01*
X127657981Y-78401346D02*
X127580571Y-78323936D01*
X127580571Y-78323936D02*
X127541866Y-78246526D01*
X127541866Y-78246526D02*
X127503162Y-78091707D01*
X127503162Y-78091707D02*
X127503162Y-77975593D01*
X127503162Y-77975593D02*
X127541866Y-77820774D01*
X127541866Y-77820774D02*
X127580571Y-77743365D01*
X127580571Y-77743365D02*
X127657981Y-77665955D01*
X127657981Y-77665955D02*
X127774095Y-77627250D01*
X127774095Y-77627250D02*
X127851504Y-77627250D01*
X127851504Y-77627250D02*
X127967619Y-77665955D01*
X127967619Y-77665955D02*
X128006323Y-77704660D01*
X132198533Y-82442074D02*
X131927600Y-82055027D01*
X131734076Y-82442074D02*
X131734076Y-81629274D01*
X131734076Y-81629274D02*
X132043714Y-81629274D01*
X132043714Y-81629274D02*
X132121124Y-81667979D01*
X132121124Y-81667979D02*
X132159829Y-81706684D01*
X132159829Y-81706684D02*
X132198533Y-81784093D01*
X132198533Y-81784093D02*
X132198533Y-81900208D01*
X132198533Y-81900208D02*
X132159829Y-81977617D01*
X132159829Y-81977617D02*
X132121124Y-82016322D01*
X132121124Y-82016322D02*
X132043714Y-82055027D01*
X132043714Y-82055027D02*
X131734076Y-82055027D01*
X132508172Y-81706684D02*
X132546876Y-81667979D01*
X132546876Y-81667979D02*
X132624286Y-81629274D01*
X132624286Y-81629274D02*
X132817810Y-81629274D01*
X132817810Y-81629274D02*
X132895219Y-81667979D01*
X132895219Y-81667979D02*
X132933924Y-81706684D01*
X132933924Y-81706684D02*
X132972629Y-81784093D01*
X132972629Y-81784093D02*
X132972629Y-81861503D01*
X132972629Y-81861503D02*
X132933924Y-81977617D01*
X132933924Y-81977617D02*
X132469467Y-82442074D01*
X132469467Y-82442074D02*
X132972629Y-82442074D01*
X131734076Y-89743050D02*
X131734076Y-88930250D01*
X131734076Y-88930250D02*
X131927600Y-88930250D01*
X131927600Y-88930250D02*
X132043714Y-88968955D01*
X132043714Y-88968955D02*
X132121124Y-89046365D01*
X132121124Y-89046365D02*
X132159829Y-89123774D01*
X132159829Y-89123774D02*
X132198533Y-89278593D01*
X132198533Y-89278593D02*
X132198533Y-89394707D01*
X132198533Y-89394707D02*
X132159829Y-89549526D01*
X132159829Y-89549526D02*
X132121124Y-89626936D01*
X132121124Y-89626936D02*
X132043714Y-89704346D01*
X132043714Y-89704346D02*
X131927600Y-89743050D01*
X131927600Y-89743050D02*
X131734076Y-89743050D01*
X132972629Y-89743050D02*
X132508172Y-89743050D01*
X132740400Y-89743050D02*
X132740400Y-88930250D01*
X132740400Y-88930250D02*
X132662991Y-89046365D01*
X132662991Y-89046365D02*
X132585581Y-89123774D01*
X132585581Y-89123774D02*
X132508172Y-89162479D01*
X127742138Y-89140562D02*
X127471205Y-88753515D01*
X127277681Y-89140562D02*
X127277681Y-88327762D01*
X127277681Y-88327762D02*
X127587319Y-88327762D01*
X127587319Y-88327762D02*
X127664729Y-88366467D01*
X127664729Y-88366467D02*
X127703434Y-88405172D01*
X127703434Y-88405172D02*
X127742138Y-88482581D01*
X127742138Y-88482581D02*
X127742138Y-88598696D01*
X127742138Y-88598696D02*
X127703434Y-88676105D01*
X127703434Y-88676105D02*
X127664729Y-88714810D01*
X127664729Y-88714810D02*
X127587319Y-88753515D01*
X127587319Y-88753515D02*
X127277681Y-88753515D01*
X128516234Y-89140562D02*
X128051777Y-89140562D01*
X128284005Y-89140562D02*
X128284005Y-88327762D01*
X128284005Y-88327762D02*
X128206596Y-88443877D01*
X128206596Y-88443877D02*
X128129186Y-88521286D01*
X128129186Y-88521286D02*
X128051777Y-88559991D01*
X128034843Y-86010460D02*
X127957433Y-85971755D01*
X127957433Y-85971755D02*
X127880024Y-85894346D01*
X127880024Y-85894346D02*
X127763910Y-85778231D01*
X127763910Y-85778231D02*
X127686500Y-85739526D01*
X127686500Y-85739526D02*
X127609091Y-85739526D01*
X127647795Y-85933050D02*
X127570386Y-85894346D01*
X127570386Y-85894346D02*
X127492976Y-85816936D01*
X127492976Y-85816936D02*
X127454272Y-85662117D01*
X127454272Y-85662117D02*
X127454272Y-85391184D01*
X127454272Y-85391184D02*
X127492976Y-85236365D01*
X127492976Y-85236365D02*
X127570386Y-85158955D01*
X127570386Y-85158955D02*
X127647795Y-85120250D01*
X127647795Y-85120250D02*
X127802614Y-85120250D01*
X127802614Y-85120250D02*
X127880024Y-85158955D01*
X127880024Y-85158955D02*
X127957433Y-85236365D01*
X127957433Y-85236365D02*
X127996138Y-85391184D01*
X127996138Y-85391184D02*
X127996138Y-85662117D01*
X127996138Y-85662117D02*
X127957433Y-85816936D01*
X127957433Y-85816936D02*
X127880024Y-85894346D01*
X127880024Y-85894346D02*
X127802614Y-85933050D01*
X127802614Y-85933050D02*
X127647795Y-85933050D01*
X128770234Y-85933050D02*
X128305777Y-85933050D01*
X128538005Y-85933050D02*
X128538005Y-85120250D01*
X128538005Y-85120250D02*
X128460596Y-85236365D01*
X128460596Y-85236365D02*
X128383186Y-85313774D01*
X128383186Y-85313774D02*
X128305777Y-85352479D01*
D12*
%TO.C,R2*%
X131811500Y-83836742D02*
X131811500Y-84311258D01*
X132856500Y-83836742D02*
X132856500Y-84311258D01*
%TO.C,D1*%
X131599000Y-86449000D02*
X131599000Y-88734000D01*
X131599000Y-88734000D02*
X133069000Y-88734000D01*
X133069000Y-88734000D02*
X133069000Y-86449000D01*
%TO.C,R1*%
X128890500Y-88535742D02*
X128890500Y-89010258D01*
X129935500Y-88535742D02*
X129935500Y-89010258D01*
%TO.C,Q1*%
X127853000Y-84074000D02*
X127853000Y-83424000D01*
X127853000Y-84074000D02*
X127853000Y-84724000D01*
X130973000Y-84074000D02*
X130973000Y-83424000D01*
X130973000Y-84074000D02*
X130973000Y-84724000D01*
X131253000Y-83151500D02*
X130923000Y-82911500D01*
X131253000Y-82671500D01*
X131253000Y-83151500D01*
G36*
X131253000Y-83151500D02*
G01*
X130923000Y-82911500D01*
X131253000Y-82671500D01*
X131253000Y-83151500D01*
G37*
%TD*%
M02*
