%TF.GenerationSoftware,KiCad,Pcbnew,9.0.0*%
%TF.CreationDate,2025-04-12T16:27:56-07:00*%
%TF.ProjectId,OAI,4f41492e-6b69-4636-9164-5f7063625858,1*%
%TF.SameCoordinates,Original*%
%TF.FileFunction,Copper,L1,Top*%
%TF.FilePolarity,Positive*%
%FSLAX46Y46*%
G04 Gerber Fmt 4.6, Leading zero omitted, Abs format (unit mm)*
G04 Created by KiCad (PCBNEW 9.0.0) date 2025-04-12 16:27:56*
%MOMM*%
%LPD*%
G01*
G04 APERTURE LIST*
G04 Aperture macros list*
%AMRoundRect*
0 Rectangle with rounded corners*
0 $1 Rounding radius*
0 $2 $3 $4 $5 $6 $7 $8 $9 X,Y pos of 4 corners*
0 Add a 4 corners polygon primitive as box body*
4,1,4,$2,$3,$4,$5,$6,$7,$8,$9,$2,$3,0*
0 Add four circle primitives for the rounded corners*
1,1,$1+$1,$2,$3*
1,1,$1+$1,$4,$5*
1,1,$1+$1,$6,$7*
1,1,$1+$1,$8,$9*
0 Add four rect primitives between the rounded corners*
20,1,$1+$1,$2,$3,$4,$5,0*
20,1,$1+$1,$4,$5,$6,$7,0*
20,1,$1+$1,$6,$7,$8,$9,0*
20,1,$1+$1,$8,$9,$2,$3,0*%
G04 Aperture macros list end*
%TA.AperFunction,SMDPad,CuDef*%
%ADD10RoundRect,0.150000X-0.150000X0.587500X-0.150000X-0.587500X0.150000X-0.587500X0.150000X0.587500X0*%
%TD*%
%TA.AperFunction,SMDPad,CuDef*%
%ADD11RoundRect,0.218750X0.256250X-0.218750X0.256250X0.218750X-0.256250X0.218750X-0.256250X-0.218750X0*%
%TD*%
%TA.AperFunction,SMDPad,CuDef*%
%ADD12RoundRect,0.200000X-0.200000X-0.275000X0.200000X-0.275000X0.200000X0.275000X-0.200000X0.275000X0*%
%TD*%
%TA.AperFunction,SMDPad,CuDef*%
%ADD13RoundRect,0.200000X0.275000X-0.200000X0.275000X0.200000X-0.275000X0.200000X-0.275000X-0.200000X0*%
%TD*%
%TA.AperFunction,ComponentPad*%
%ADD14R,1.700000X1.700000*%
%TD*%
%TA.AperFunction,ComponentPad*%
%ADD15O,1.700000X1.700000*%
%TD*%
%TA.AperFunction,ComponentPad*%
%ADD16C,1.700000*%
%TD*%
%TA.AperFunction,ViaPad*%
%ADD17C,0.600000*%
%TD*%
%TA.AperFunction,Conductor*%
%ADD18C,0.400000*%
%TD*%
%TA.AperFunction,Conductor*%
%ADD19C,0.200000*%
%TD*%
G04 APERTURE END LIST*
D10*
%TO.P,Q3,1,G*%
%TO.N,/C*%
X134173000Y-82120500D03*
%TO.P,Q3,2,S*%
%TO.N,VDC*%
X132273000Y-82120500D03*
%TO.P,Q3,3,D*%
%TO.N,/Y*%
X133223000Y-83995500D03*
%TD*%
D11*
%TO.P,D1,1,K*%
%TO.N,GND*%
X134366000Y-87909500D03*
%TO.P,D1,2,A*%
%TO.N,Net-(D1-A)*%
X134366000Y-86334500D03*
%TD*%
D12*
%TO.P,R1,1*%
%TO.N,/Y*%
X128842000Y-90424000D03*
%TO.P,R1,2*%
%TO.N,GND*%
X130492000Y-90424000D03*
%TD*%
D13*
%TO.P,R2,1*%
%TO.N,/Y*%
X132588000Y-87947000D03*
%TO.P,R2,2*%
%TO.N,Net-(D1-A)*%
X132588000Y-86297000D03*
%TD*%
D10*
%TO.P,Q2,1,G*%
%TO.N,/B*%
X130617000Y-86184500D03*
%TO.P,Q2,2,S*%
%TO.N,Net-(Q1-D)*%
X128717000Y-86184500D03*
%TO.P,Q2,3,D*%
%TO.N,/Y*%
X129667000Y-88059500D03*
%TD*%
%TO.P,Q1,1,G*%
%TO.N,/A*%
X130617000Y-82120500D03*
%TO.P,Q1,2,S*%
%TO.N,VDC*%
X128717000Y-82120500D03*
%TO.P,Q1,3,D*%
%TO.N,Net-(Q1-D)*%
X129667000Y-83995500D03*
%TD*%
D14*
%TO.P,J1,1,Pin_1*%
%TO.N,VDC*%
X127000000Y-76200000D03*
D15*
%TO.P,J1,2,Pin_2*%
%TO.N,/A*%
X129540000Y-76200000D03*
%TO.P,J1,3,Pin_3*%
%TO.N,/B*%
X132080000Y-76200000D03*
%TO.P,J1,4,Pin_4*%
%TO.N,/C*%
X134620000Y-76200000D03*
%TD*%
D16*
%TO.P,J2,1,Pin_1*%
%TO.N,/Y*%
X127000000Y-93980000D03*
D15*
%TO.P,J2,2,Pin_2*%
%TO.N,unconnected-(J2-Pin_2-Pad2)*%
X129540000Y-93980000D03*
%TO.P,J2,3,Pin_3*%
%TO.N,unconnected-(J2-Pin_3-Pad3)*%
X132080000Y-93980000D03*
%TO.P,J2,4,Pin_4*%
%TO.N,GND*%
X134620000Y-93980000D03*
%TD*%
D17*
%TO.N,VDC*%
X132273000Y-80772000D03*
%TD*%
D18*
%TO.N,GND*%
X134620000Y-90678000D02*
X134366000Y-90424000D01*
X134366000Y-87909500D02*
X134366000Y-90424000D01*
X134620000Y-93980000D02*
X134620000Y-90678000D01*
X134366000Y-90424000D02*
X130492000Y-90424000D01*
D19*
%TO.N,Net-(D1-A)*%
X132625500Y-86334500D02*
X132588000Y-86297000D01*
X134366000Y-86334500D02*
X132625500Y-86334500D01*
%TO.N,/C*%
X134620000Y-76200000D02*
X134620000Y-77470000D01*
X134173000Y-77917000D02*
X134173000Y-82120500D01*
X134620000Y-77470000D02*
X134173000Y-77917000D01*
%TO.N,/A*%
X130617000Y-82120500D02*
X130617000Y-78547000D01*
X129540000Y-77470000D02*
X129540000Y-76200000D01*
X130617000Y-78547000D02*
X129540000Y-77470000D01*
%TO.N,/B*%
X132080000Y-77470000D02*
X132080000Y-76200000D01*
X130617000Y-85283000D02*
X130810000Y-85090000D01*
X131445000Y-78105000D02*
X132080000Y-77470000D01*
X131445000Y-84836000D02*
X131445000Y-78105000D01*
X130617000Y-86184500D02*
X130617000Y-85283000D01*
X130810000Y-85090000D02*
X131191000Y-85090000D01*
X131191000Y-85090000D02*
X131445000Y-84836000D01*
D18*
%TO.N,VDC*%
X127000000Y-79055000D02*
X127000000Y-76200000D01*
X128717000Y-80772000D02*
X127000000Y-79055000D01*
X132273000Y-82120500D02*
X132273000Y-80772000D01*
X128717000Y-82120500D02*
X128717000Y-80772000D01*
D19*
%TO.N,/Y*%
X128652000Y-89281000D02*
X128842000Y-89471000D01*
X127000000Y-89535000D02*
X127254000Y-89281000D01*
X131700000Y-87757000D02*
X131699000Y-87757000D01*
X131572000Y-89281000D02*
X131699000Y-89154000D01*
X131953000Y-85090000D02*
X133096000Y-85090000D01*
X129667000Y-88059500D02*
X129667000Y-89154000D01*
X131699000Y-89154000D02*
X131699000Y-88138000D01*
X127254000Y-89281000D02*
X128652000Y-89281000D01*
X131699000Y-85344000D02*
X131953000Y-85090000D01*
X129540000Y-89281000D02*
X129032000Y-89281000D01*
X129032000Y-89281000D02*
X128842000Y-89471000D01*
X131890000Y-87947000D02*
X132588000Y-87947000D01*
X133223000Y-84963000D02*
X133223000Y-83995500D01*
X129667000Y-89154000D02*
X129540000Y-89281000D01*
X128842000Y-89471000D02*
X128842000Y-90424000D01*
X131699000Y-87757000D02*
X131699000Y-85344000D01*
X129667000Y-89154000D02*
X129794000Y-89281000D01*
X127000000Y-93980000D02*
X127000000Y-89535000D01*
X131699000Y-88138000D02*
X131890000Y-87947000D01*
X131890000Y-87947000D02*
X131700000Y-87757000D01*
X133096000Y-85090000D02*
X133223000Y-84963000D01*
X129794000Y-89281000D02*
X131572000Y-89281000D01*
%TO.N,Net-(Q1-D)*%
X129667000Y-84963000D02*
X129540000Y-85090000D01*
X129540000Y-85090000D02*
X128905000Y-85090000D01*
X129667000Y-83995500D02*
X129667000Y-84963000D01*
X128717000Y-85278000D02*
X128717000Y-86184500D01*
X128905000Y-85090000D02*
X128717000Y-85278000D01*
%TD*%
M02*
