%TF.GenerationSoftware,KiCad,Pcbnew,9.0.0*%
%TF.CreationDate,2025-04-12T15:09:13-07:00*%
%TF.ProjectId,PUSH,50555348-2e6b-4696-9361-645f70636258,1*%
%TF.SameCoordinates,Original*%
%TF.FileFunction,Copper,L1,Top*%
%TF.FilePolarity,Positive*%
%FSLAX46Y46*%
G04 Gerber Fmt 4.6, Leading zero omitted, Abs format (unit mm)*
G04 Created by KiCad (PCBNEW 9.0.0) date 2025-04-12 15:09:13*
%MOMM*%
%LPD*%
G01*
G04 APERTURE LIST*
G04 Aperture macros list*
%AMRoundRect*
0 Rectangle with rounded corners*
0 $1 Rounding radius*
0 $2 $3 $4 $5 $6 $7 $8 $9 X,Y pos of 4 corners*
0 Add a 4 corners polygon primitive as box body*
4,1,4,$2,$3,$4,$5,$6,$7,$8,$9,$2,$3,0*
0 Add four circle primitives for the rounded corners*
1,1,$1+$1,$2,$3*
1,1,$1+$1,$4,$5*
1,1,$1+$1,$6,$7*
1,1,$1+$1,$8,$9*
0 Add four rect primitives between the rounded corners*
20,1,$1+$1,$2,$3,$4,$5,0*
20,1,$1+$1,$4,$5,$6,$7,0*
20,1,$1+$1,$6,$7,$8,$9,0*
20,1,$1+$1,$8,$9,$2,$3,0*%
G04 Aperture macros list end*
%TA.AperFunction,ComponentPad*%
%ADD10C,2.000000*%
%TD*%
%TA.AperFunction,SMDPad,CuDef*%
%ADD11RoundRect,0.200000X-0.200000X-0.275000X0.200000X-0.275000X0.200000X0.275000X-0.200000X0.275000X0*%
%TD*%
%TA.AperFunction,SMDPad,CuDef*%
%ADD12RoundRect,0.225000X-0.225000X-0.250000X0.225000X-0.250000X0.225000X0.250000X-0.225000X0.250000X0*%
%TD*%
%TA.AperFunction,ComponentPad*%
%ADD13R,1.700000X1.700000*%
%TD*%
%TA.AperFunction,ComponentPad*%
%ADD14O,1.700000X1.700000*%
%TD*%
%TA.AperFunction,ComponentPad*%
%ADD15C,1.700000*%
%TD*%
%TA.AperFunction,Conductor*%
%ADD16C,0.400000*%
%TD*%
%TA.AperFunction,Conductor*%
%ADD17C,0.200000*%
%TD*%
G04 APERTURE END LIST*
D10*
%TO.P,SW1,1,A*%
%TO.N,GND*%
X134060000Y-87340000D03*
X127560000Y-87340000D03*
%TO.P,SW1,2,B*%
%TO.N,Net-(SW1-B)*%
X134060000Y-82840000D03*
X127560000Y-82840000D03*
%TD*%
D11*
%TO.P,R2,1*%
%TO.N,Net-(SW1-B)*%
X128715000Y-89662000D03*
%TO.P,R2,2*%
%TO.N,/W*%
X130365000Y-89662000D03*
%TD*%
%TO.P,R1,1*%
%TO.N,VDC*%
X128715000Y-80518000D03*
%TO.P,R1,2*%
%TO.N,Net-(SW1-B)*%
X130365000Y-80518000D03*
%TD*%
D12*
%TO.P,C1,1*%
%TO.N,/W*%
X128765000Y-91186000D03*
%TO.P,C1,2*%
%TO.N,GND*%
X130315000Y-91186000D03*
%TD*%
D13*
%TO.P,J1,1,Pin_1*%
%TO.N,VDC*%
X127000000Y-76200000D03*
D14*
%TO.P,J1,2,Pin_2*%
%TO.N,unconnected-(J1-Pin_2-Pad2)*%
X129540000Y-76200000D03*
%TO.P,J1,3,Pin_3*%
%TO.N,unconnected-(J1-Pin_3-Pad3)*%
X132080000Y-76200000D03*
%TO.P,J1,4,Pin_4*%
%TO.N,unconnected-(J1-Pin_4-Pad4)*%
X134620000Y-76200000D03*
%TD*%
D15*
%TO.P,J2,1,Pin_1*%
%TO.N,/W*%
X127000000Y-93980000D03*
D14*
%TO.P,J2,2,Pin_2*%
%TO.N,unconnected-(J2-Pin_2-Pad2)*%
X129540000Y-93980000D03*
%TO.P,J2,3,Pin_3*%
%TO.N,unconnected-(J2-Pin_3-Pad3)*%
X132080000Y-93980000D03*
%TO.P,J2,4,Pin_4*%
%TO.N,GND*%
X134620000Y-93980000D03*
%TD*%
D16*
%TO.N,GND*%
X134060000Y-91186000D02*
X134620000Y-91746000D01*
X134060000Y-91186000D02*
X130315000Y-91186000D01*
X134060000Y-87340000D02*
X134060000Y-91186000D01*
X134620000Y-91746000D02*
X134620000Y-93980000D01*
D17*
%TO.N,/W*%
X127000000Y-92075000D02*
X127000000Y-93980000D01*
X129495500Y-90455500D02*
X129571500Y-90455500D01*
X128765000Y-91186000D02*
X127889000Y-91186000D01*
X129571500Y-90455500D02*
X130365000Y-89662000D01*
X127889000Y-91186000D02*
X127000000Y-92075000D01*
X128765000Y-91186000D02*
X129495500Y-90455500D01*
D16*
%TO.N,VDC*%
X128715000Y-80518000D02*
X127889000Y-80518000D01*
X127000000Y-79629000D02*
X127000000Y-76200000D01*
X127889000Y-80518000D02*
X127000000Y-79629000D01*
D17*
%TO.N,Net-(SW1-B)*%
X130365000Y-80518000D02*
X130365000Y-82840000D01*
X130365000Y-88012000D02*
X130365000Y-82840000D01*
X128715000Y-89662000D02*
X130365000Y-88012000D01*
X130365000Y-82840000D02*
X134060000Y-82840000D01*
X127560000Y-82840000D02*
X130365000Y-82840000D01*
%TD*%
M02*
